<svg xmlns="http://www.w3.org/2000/svg" viewBox="0 0 1254 1254" role="img" aria-labelledby="title desc">
  <title id="title">Pastor photo coming soon</title>
  <desc id="desc">A clean gray placeholder with two smiling profile silhouettes and the words Coming Soon.</desc>
  <rect width="1254" height="1254" fill="#f7f4ec"/>
  <circle cx="360" cy="438" r="236" fill="#e4e3df"/>
  <circle cx="894" cy="438" r="236" fill="#e4e3df"/>
  <path d="M230 570c26-82 76-124 149-124 72 0 121 42 147 124 42 18 78 47 108 87H122c30-40 66-69 108-87z" fill="#808783"/>
  <path d="M760 570c26-82 76-124 149-124 72 0 121 42 147 124 42 18 78 47 108 87H652c30-40 66-69 108-87z" fill="#808783"/>
  <path d="M252 394c10-81 59-131 126-131 68 0 118 50 127 131-41-21-82-31-126-31-45 0-87 10-127 31z" fill="#808783"/>
  <path d="M780 394c15-81 67-131 132-131 66 0 112 49 122 132-38-23-79-34-122-34-48 0-92 11-132 33z" fill="#808783"/>
  <path d="M326 476c24 23 50 23 74 0" fill="none" stroke="#f7f4ec" stroke-width="12" stroke-linecap="round"/>
  <path d="M860 476c24 23 50 23 74 0" fill="none" stroke="#f7f4ec" stroke-width="12" stroke-linecap="round"/>
  <path d="M258 788h738" stroke="#d9a93a" stroke-width="14" stroke-linecap="round"/>
  <text x="627" y="905" fill="#052544" font-family="Arial, Helvetica, sans-serif" font-size="88" font-weight="800" text-anchor="middle">Coming Soon</text>
  <text x="627" y="992" fill="#5d6132" font-family="Arial, Helvetica, sans-serif" font-size="42" font-weight="700" text-anchor="middle">Photo to be added</text>
</svg>
