<svg xmlns="http://www.w3.org/2000/svg" viewBox="0 0 1254 1254" role="img" aria-labelledby="title desc">
  <title id="title">Pastor photo coming soon</title>
  <desc id="desc">A clean Eastland branded placeholder with the words Image Coming Soon.</desc>
  <rect width="1254" height="1254" fill="#f7f4ec"/>
  <circle cx="1038" cy="188" r="252" fill="#d9a93a" opacity="0.14"/>
  <circle cx="180" cy="1062" r="300" fill="#163e66" opacity="0.1"/>
  <rect x="214" y="254" width="826" height="746" rx="44" fill="#ffffff" stroke="#052544" stroke-width="12"/>
  <path d="M304 786c96-108 208-162 338-162 139 0 251 54 336 162v118H304V786z" fill="#052544"/>
  <path d="M394 786c71-65 153-98 246-98 101 0 184 33 250 98v118H394V786z" fill="#163e66"/>
  <path d="M502 786c45-42 97-63 156-63 64 0 117 21 160 63v118H502V786z" fill="#5d6132"/>
  <path d="M498 557c22-72 84-124 158-124s136 52 158 124" fill="#d9a93a"/>
  <path d="M637 330h40v154h-40z" fill="#052544"/>
  <path d="M592 383h130v36H592z" fill="#052544"/>
  <path d="M342 330h190" stroke="#d9a93a" stroke-width="14" stroke-linecap="round"/>
  <path d="M722 330h190" stroke="#d9a93a" stroke-width="14" stroke-linecap="round"/>
  <text x="627" y="824" fill="#ffffff" font-family="Arial, Helvetica, sans-serif" font-size="74" font-weight="800" text-anchor="middle">Image</text>
  <text x="627" y="908" fill="#ffffff" font-family="Arial, Helvetica, sans-serif" font-size="74" font-weight="800" text-anchor="middle">Coming Soon</text>
</svg>
